<svg width="513" height="512" viewBox="0 0 513 512" fill="none" xmlns="http://www.w3.org/2000/svg">
  <g clip-path="url(#clip0_1267_11985)">
    <circle cx="256.22" cy="256" r="256" fill="white" />
    <path fill-rule="evenodd" clip-rule="evenodd"
      d="M309.237 151.37C311.962 144.215 319.681 140.714 326.795 143.302C333.909 145.89 337.39 153.957 334.817 160.96L299.7 256.251C297.582 261.579 292.587 265.232 286.986 265.232C281.235 265.232 276.088 261.579 274.272 256.251L262.92 225.959L251.567 256.251C249.6 261.579 244.453 265.232 238.853 265.232C233.101 265.232 227.955 261.579 226.138 256.251L220.387 242.551C219.478 243.769 218.57 244.834 217.662 245.9C207.218 257.012 193.444 263.862 178.459 265.384L174.675 265.689H171.95C164.533 265.689 156.965 264.319 149.7 261.427H149.548L149.094 261.122C148.641 260.97 148.339 260.818 148.037 260.667L148.035 260.666C147.883 260.513 147.581 260.361 147.429 260.361H147.278C123.06 250.01 107.923 225.198 109.891 198.863C111.102 182.271 118.519 167.201 131.082 156.241C143.494 145.281 159.387 139.953 175.886 141.171C183 141.627 188.297 147.868 187.843 155.023C187.389 162.177 181.183 167.505 174.069 167.048C168.166 166.592 162.414 167.657 157.117 169.941C157.041 170.017 156.965 170.055 156.89 170.093C156.814 170.131 156.738 170.169 156.662 170.245C156.587 170.245 156.511 170.283 156.435 170.321C156.36 170.359 156.284 170.398 156.208 170.398C152.576 172.072 149.397 174.507 146.521 177.248C139.104 184.706 134.866 195.21 135.926 206.474C137.742 226.568 155.3 240.877 175.28 239.354C189.357 238.289 202.374 228.699 206.461 214.846C207.659 210.832 207.102 209.053 206.435 206.923C206.344 206.63 206.25 206.331 206.158 206.018C205.704 204.191 204.342 201.603 203.585 200.233C203.585 200.233 203.434 200.081 203.434 199.929C203.131 199.32 202.828 198.863 202.828 198.863C202.828 198.863 202.677 198.711 202.677 198.559L201.012 195.514C200.709 195.058 200.558 194.753 200.406 194.296C197.985 188.055 200.709 180.444 206.612 177.4C213.121 174.051 221.295 176.791 224.625 183.489L227.652 189.273L239.004 212.411L249.902 185.315C251.87 179.987 257.319 175.573 262.92 175.573C268.671 175.573 274.423 179.987 276.24 185.315L286.835 212.411L309.237 151.37ZM353.284 175.268C360.852 175.268 367.059 181.662 367.059 189.425L367.21 251.38C367.21 258.991 361.003 265.536 353.586 265.536C346.169 265.536 339.813 258.991 339.813 251.38L339.661 189.425C339.661 181.814 345.867 175.268 353.284 175.268Z"
      fill="#585857" />
    <path
      d="M389.436 238.289C382.019 238.289 376.116 244.4 376.116 252.077C376.116 259.755 382.019 265.866 389.436 265.866C396.853 265.866 402.756 259.755 402.756 252.077C402.756 244.4 396.853 238.289 389.436 238.289Z"
      fill="#53F5BF" />
    <path
      d="M134.747 370.691C147.171 370.691 156.109 363.477 156.109 352.379V352.194C156.109 342.298 149.674 337.026 135.73 333.882C121.965 330.83 118.747 327.408 118.747 321.304V321.119C118.747 315.292 123.932 310.668 132.065 310.668C137.875 310.668 142.97 312.333 148.244 316.31C148.869 316.772 149.495 316.957 150.299 316.957C152.176 316.957 153.696 315.385 153.696 313.443C153.696 312.055 152.891 311.038 152.176 310.483C146.456 306.229 140.467 304.102 132.244 304.102C120.356 304.102 111.686 311.593 111.686 321.766V321.951C111.686 332.587 118.3 337.396 132.691 340.633C145.83 343.5 148.959 346.922 148.959 352.933V353.118C148.959 359.5 143.417 364.124 135.015 364.124C127.06 364.124 121.161 361.627 115.261 356.448C114.815 355.985 114.01 355.616 113.116 355.616C111.239 355.616 109.72 357.188 109.72 359.222C109.72 360.425 110.256 361.442 111.06 361.997C118.032 367.731 125.63 370.691 134.747 370.691Z"
      fill="#2E2E2E" />
    <path
      d="M185.695 366.529C185.695 368.563 187.304 370.228 189.27 370.228C191.236 370.228 192.845 368.563 192.845 366.529V311.778H210.99C212.778 311.778 214.297 310.298 214.297 308.448C214.297 306.599 212.778 305.026 210.99 305.026H167.55C165.762 305.026 164.243 306.599 164.243 308.448C164.243 310.298 165.762 311.778 167.55 311.778H185.695V366.529Z"
      fill="#2E2E2E" />
    <path
      d="M215.146 366.899C215.146 368.748 216.576 370.228 218.364 370.228C219.973 370.228 221.135 369.303 221.761 367.731L228.285 352.656H262.608L269.133 367.546C269.759 369.026 270.921 370.228 272.619 370.228C274.496 370.228 276.016 368.656 276.016 366.714C276.016 366.159 275.837 365.511 275.569 364.864L250.184 307.523C249.38 305.489 247.95 304.287 245.804 304.287H245.447C243.212 304.287 241.872 305.489 240.978 307.523L215.593 364.956C215.236 365.696 215.146 366.344 215.146 366.899ZM231.056 345.997L245.447 312.888L259.837 345.997H231.056Z"
      fill="#2E2E2E" />
    <path
      d="M289.528 366.529C289.528 368.563 291.137 370.228 293.014 370.228C294.981 370.228 296.59 368.563 296.59 366.529V344.61H314.556L332.164 368.286C332.968 369.396 334.041 370.228 335.471 370.228C337.259 370.228 339.046 368.563 339.046 366.621C339.046 365.604 338.599 364.772 337.884 363.939L322.332 343.223C332.074 341.28 339.046 335.084 339.046 324.448V324.263C339.046 319.177 337.259 314.645 334.22 311.5C330.287 307.431 324.119 305.026 316.433 305.026H293.014C291.137 305.026 289.528 306.691 289.528 308.726V366.529ZM296.59 338.043V311.778H315.896C325.996 311.778 331.896 316.587 331.896 324.541V324.726C331.896 333.049 325.192 338.043 315.807 338.043H296.59Z"
      fill="#2E2E2E" />
    <path
      d="M370.046 366.529C370.046 368.563 371.655 370.228 373.621 370.228C375.588 370.228 377.197 368.563 377.197 366.529V311.778H395.341C397.129 311.778 398.648 310.298 398.648 308.448C398.648 306.599 397.129 305.026 395.341 305.026H351.901C350.114 305.026 348.594 306.599 348.594 308.448C348.594 310.298 350.114 311.778 351.901 311.778H370.046V366.529Z"
      fill="#2E2E2E" />
  </g>
  <defs>
    <clipPath id="clip0_1267_11985">
      <rect width="512" height="512" fill="white" transform="translate(0.219727)" />
    </clipPath>
  </defs>
</svg>
